External Loads File
version=1
nRows=39
nColumns=13
Range=5.000000e-03-10 seconds
endheader
time 	forceRightX 	forceRightY 	forceRightZ 	pointRightX 	pointRightY 	pointRightZ 	forceLeftX 	forceLeftY 	forceLeftZ 	pointLeftX 	pointLeftY 	pointLeftZ 		
2.505000 6.276679 713.329634 -0.000000 0.326569 0.247121 -0.103523 46.563454 -61.230128 -0.000000 0.051627 0.385603 -0.341226
2.510000 13.315517 725.135830 -0.000000 0.324013 0.240927 -0.103398 46.441855 -61.962682 -0.000000 0.054791 0.391495 -0.341339
2.515000 20.507909 737.671003 -0.000000 0.321237 0.234802 -0.103348 45.981586 -63.351143 -0.000000 0.058215 0.397402 -0.341428
2.520000 27.110419 751.049478 -0.000000 0.318341 0.228807 -0.103439 45.177544 -65.329610 -0.000000 0.061889 0.403089 -0.341628
2.525000 33.695493 765.316638 -0.000000 0.315078 0.222720 -0.103335 43.894790 -67.893377 -0.000000 0.065667 0.408498 -0.341519
2.530000 40.064684 780.482144 -0.000000 0.311620 0.217038 -0.103302 42.083405 -70.956368 -0.000000 0.069765 0.413935 -0.341634
2.535000 46.721442 796.450340 -0.000000 0.307904 0.211431 -0.103202 39.666057 -74.442866 -0.000000 0.074134 0.419270 -0.341767
2.540000 52.986931 813.103606 -0.000000 0.304041 0.206000 -0.103117 36.710099 -78.198731 -0.000000 0.078693 0.424394 -0.341834
2.545000 59.737327 830.138860 -0.000000 0.299927 0.200641 -0.103038 33.166498 -82.120922 -0.000000 0.083510 0.429414 -0.342077
2.550000 66.356609 847.255403 -0.000000 0.295730 0.195446 -0.102967 29.145066 -86.009587 -0.000000 0.088417 0.434403 -0.342083
2.555000 73.284178 863.993584 -0.000000 0.291224 0.190578 -0.102944 24.650876 -89.703548 -0.000000 0.093690 0.439031 -0.342401
2.560000 81.383050 879.783058 -0.000000 0.286719 0.185838 -0.102909 19.633596 -93.064619 -0.000000 0.099531 0.443604 -0.342969
2.565000 88.796395 894.281726 -0.000000 0.281858 0.181434 -0.102374 14.337699 -95.933845 -0.000000 0.105091 0.447843 -0.343184
2.570000 95.810269 906.978936 -0.000000 0.276984 0.177177 -0.102493 8.807230 -98.272629 -0.000000 0.110793 0.451661 -0.343402
2.575000 103.758424 917.232104 -0.000000 0.271864 0.173182 -0.102376 2.985481 -100.077842 -0.000000 0.116565 0.455730 -0.343425
2.580000 109.715380 924.852652 -0.000000 0.266614 0.169461 -0.102351 -2.711363 -101.339397 -0.000000 0.121788 0.459341 -0.343131
2.585000 118.275687 928.775913 -0.000000 0.261197 0.165935 -0.102467 -8.679350 -102.044729 -0.000000 0.127894 0.462841 -0.343127
2.590000 126.320019 928.855632 -0.000000 0.255723 0.162668 -0.102554 -14.470429 -102.153606 -0.000000 0.133952 0.465896 -0.343211
2.595000 134.836581 924.516661 -0.000000 0.250123 0.159679 -0.102657 -20.100160 -101.556805 -0.000000 0.140097 0.469003 -0.343193
2.600000 143.736383 915.412224 -0.000000 0.244419 0.157046 -0.102712 -25.482802 -100.089811 -0.000000 0.146464 0.471820 -0.343461
2.605000 151.906601 901.481247 -0.000000 0.238588 0.154067 -0.102751 -30.434895 -97.570206 -0.000000 0.152519 0.474465 -0.343430
2.610000 159.194111 882.662425 -0.000000 0.232762 0.151935 -0.102686 -34.887211 -93.755110 -0.000000 0.158700 0.476927 -0.343548
2.615000 165.726887 858.968093 -0.000000 0.226862 0.149929 -0.102712 -38.801102 -88.367232 -0.000000 0.164932 0.479137 -0.343621
2.620000 170.561606 830.710141 -0.000000 0.221020 0.148239 -0.102568 -42.029208 -81.196726 -0.000000 0.171077 0.481110 -0.343585
2.625000 174.510741 797.917667 -0.000000 0.215071 0.146858 -0.102513 -44.611998 -72.022102 -0.000000 0.177348 0.482831 -0.343739
2.630000 176.260855 761.119865 -0.000000 0.209418 0.145656 -0.102183 -46.410590 -60.846789 -0.000000 0.183635 0.484372 -0.343737
2.635000 177.591016 720.236029 -0.000000 0.203083 0.144915 -0.102317 -47.572176 -47.629962 -0.000000 0.189853 0.485740 -0.343832
2.640000 176.057963 676.304193 -0.000000 0.197244 0.144353 -0.102172 -47.931382 -32.723154 -0.000000 0.196033 0.486596 -0.344061
2.645000 172.208623 629.804866 -0.000000 0.191372 0.144020 -0.101999 -47.573677 -16.409053 -0.000000 0.201868 0.487345 -0.344166
2.650000 166.582091 581.273558 -0.000000 0.185565 0.143943 -0.101864 -46.559716 0.961052 -0.000000 0.207648 0.487778 -0.344259
2.655000 159.880834 531.198517 -0.000000 0.179328 0.144104 -0.101915 -44.929346 19.061580 -0.000000 0.213227 0.487974 -0.344362
2.660000 150.331035 480.805536 -0.000000 0.174155 0.144482 -0.101489 -42.857386 37.492384 -0.000000 0.218678 0.487920 -0.344439
2.665000 140.251592 430.080694 -0.000000 0.168643 0.145398 -0.101162 -40.382133 56.380082 -0.000000 0.223839 0.487688 -0.344618
2.670000 129.814268 379.644806 -0.000000 0.162939 0.146458 -0.100997 -37.532135 75.746684 -0.000000 0.228825 0.486994 -0.344753
2.675000 119.098683 330.168046 -0.000000 0.157183 0.147836 -0.100819 -34.363068 95.610588 -0.000000 0.233560 0.485998 -0.344971
2.680000 108.364164 282.250421 -0.000000 0.151393 0.149659 -0.100646 -30.932037 116.105006 -0.000000 0.238044 0.484940 -0.344980
2.685000 98.232731 236.279792 -0.000000 0.145508 0.151776 -0.100425 -27.118826 137.563184 -0.000000 0.242636 0.483464 -0.345219
2.690000 88.514637 192.819613 -0.000000 0.139449 0.154127 -0.100391 -23.136716 160.311183 -0.000000 0.246834 0.481517 -0.345307
2.695000 79.367033 152.110411 -0.000000 0.133365 0.156950 -0.100297 -19.109341 184.659986 -0.000000 0.250845 0.479578 -0.345548
